<svg width="406" height="352" viewBox="0 0 406 352" fill="none" xmlns="http://www.w3.org/2000/svg">
<circle cx="175.603" cy="175.603" r="149" transform="rotate(-11.4453 175.603 175.603)" fill="#B2EDC5"/>
<circle cx="233.068" cy="178.068" r="146" transform="rotate(-11.4453 233.068 178.068)" fill="#DCF7E4" fill-opacity="0.56"/>
<path d="M146.18 168.801C155.071 168.801 162.3 161.656 162.3 152.867C162.3 144.079 155.071 136.934 146.18 136.934C137.289 136.934 130.06 144.079 130.06 152.867C130.06 161.656 137.289 168.801 146.18 168.801ZM259.02 168.801C267.911 168.801 275.14 161.656 275.14 152.867C275.14 144.079 267.911 136.934 259.02 136.934C250.129 136.934 242.9 144.079 242.9 152.867C242.9 161.656 250.129 168.801 259.02 168.801ZM267.08 176.768H250.96C246.527 176.768 242.522 178.535 239.6 181.398C249.751 186.9 256.955 196.834 258.516 208.635H275.14C279.598 208.635 283.2 205.075 283.2 200.668V192.701C283.2 183.913 275.971 176.768 267.08 176.768ZM202.6 176.768C218.191 176.768 230.81 164.295 230.81 148.884C230.81 133.473 218.191 121 202.6 121C187.009 121 174.39 133.473 174.39 148.884C174.39 164.295 187.009 176.768 202.6 176.768ZM221.944 184.734H219.853C214.614 187.224 208.796 188.718 202.6 188.718C196.404 188.718 190.611 187.224 185.347 184.734H183.256C167.237 184.734 154.24 197.581 154.24 213.415V220.585C154.24 227.183 159.655 232.535 166.33 232.535H238.87C245.545 232.535 250.96 227.183 250.96 220.585V213.415C250.96 197.581 237.963 184.734 221.944 184.734ZM165.6 181.398C162.678 178.535 158.673 176.768 154.24 176.768H138.12C129.229 176.768 122 183.913 122 192.701V200.668C122 205.075 125.602 208.635 130.06 208.635H146.659C148.245 196.834 155.449 186.9 165.6 181.398Z" fill="#22AED1"/>
<path d="M203.05 73L206.878 84.7812H219.266L209.244 92.0624L213.072 103.844L203.05 96.5625L193.028 103.844L196.856 92.0624L186.834 84.7812H199.222L203.05 73Z" fill="#0B5072"/>
<path d="M266.054 94.393L269.882 106.174H282.269L272.248 113.455L276.076 125.237L266.054 117.956L256.032 125.237L259.86 113.455L249.838 106.174H262.226L266.054 94.393Z" fill="#0B5072"/>
<path d="M145.193 94.393L149.021 106.174H161.408L151.387 113.455L155.215 125.237L145.193 117.956L135.171 125.237L138.999 113.455L128.977 106.174H141.365L145.193 94.393Z" fill="#0B5072"/>
<path d="M105.05 141.05L108.878 152.831H121.266L111.244 160.112L115.072 171.894L105.05 164.612L95.0283 171.894L98.8562 160.112L88.8345 152.831H101.222L105.05 141.05Z" fill="#0B5072"/>
<path d="M300.35 146.475L304.178 158.256H316.565L306.544 165.537L310.372 177.319L300.35 170.037L290.328 177.319L294.156 165.537L284.134 158.256H296.522L300.35 146.475Z" fill="#0B5072"/>
</svg>
