<svg width="1036" height="448" viewBox="0 0 1036 448" fill="none" xmlns="http://www.w3.org/2000/svg">
<g opacity="0.4">
<path d="M1.16842 232.939L19.8391 257.376L61.3843 257.346L149.479 142.808L212.221 142.762L279.983 51.5784L363.922 51.5175" stroke="#5D737D" stroke-opacity="0.3"/>
<path d="M86.7976 226.208L129.191 226.177L165.612 176.138L197.831 176.115" stroke="#5D737D" stroke-opacity="0.3"/>
<path d="M241.022 107.177L335.983 107.108L353.768 80.4213L408.879 80.3813L415.657 73.708" stroke="#5D737D" stroke-opacity="0.3"/>
<path d="M377.509 81.5155L418.167 27.0275L525.846 26.9494L547.065 58.0532L725.116 57.924L738.695 76.8079" stroke="#5D737D" stroke-opacity="0.3"/>
<path d="M590.304 55.7989L625.035 12.4291" stroke="#5D737D" stroke-opacity="0.3"/>
<path d="M450.388 30.3383L469.91 59.2205L515.695 59.1873" stroke="#5D737D" stroke-opacity="0.3"/>
<path d="M7.98195 275.167L108.03 275.095L122.43 256.19L158.04 256.164L197.851 202.788L390.315 202.649L437.752 142.599" stroke="#5D737D" stroke-opacity="0.3" stroke-width="2"/>
<path d="M256.352 201.635L308.87 132.69L405.526 132.62L436.867 91.4751L701.4 91.2832" stroke="#5D737D" stroke-opacity="0.3" stroke-width="2"/>
<path d="M471.631 93.6726L500.484 129.216L639.533 129.116" stroke="#5D737D" stroke-opacity="0.3" stroke-width="2"/>
<path d="M546.269 130.295L559.849 149.179L622.591 149.133" stroke="#5D737D" stroke-opacity="0.3" stroke-width="2"/>
<path d="M238.22 149.23L251.466 166.156L359.125 168.204L395.473 218.917L425.143 219.482L451.187 187.741L542.739 189.482L568.405 222.207L611.639 223.029L630.732 200.049L701.94 201.403L718.45 225.061L803.221 226.674L851.876 165.349L950.21 167.22L968.519 140.89" stroke="#67757C" stroke-opacity="0.3"/>
<path d="M232.455 140.228L265.515 140.857L280.351 163.371" stroke="#67757C" stroke-opacity="0.3"/>
<path d="M235.486 159.183L259.222 159.634L279.886 187.817L361.266 189.365L390.112 233.266" stroke="#67757C" stroke-opacity="0.3"/>
<path d="M223.388 215.644L284.423 216.805L300.997 237.129L357.793 238.209" stroke="#67757C" stroke-opacity="0.3"/>
<path d="M229.705 240.219L276.329 241.106L287.88 258L365.869 259.483" stroke="#67757C" stroke-opacity="0.3"/>
<path d="M229.597 201.311L348.276 203.569L385.535 250.965L433.855 251.884L466.828 212.493L533.797 213.767L564.402 254.367L615.264 255.335L628.233 242.242L673.162 243.097L689.63 268.977L726.081 269.67L746.065 244.483L784.212 245.209L811.531 280.188L860.698 281.124L895.414 328.471L1014.09 330.729L1029.82 351.037" stroke="#67757C" stroke-opacity="0.3"/>
<path d="M223.562 295.683L275.272 296.666L294.386 272.575L380.005 274.203" stroke="#67757C" stroke-opacity="0.3"/>
<path d="M220.638 315.636L282.521 316.813L295.553 300.387L385.411 302.096L398.551 324.578L441.784 325.4L447.061 315.496L510.639 316.706L542.006 361.766L604.737 362.96L632.519 329.028L693.554 330.189L727.464 375.298L759.677 375.911L790.892 339.822L814.628 340.274L858.521 395.577L884.8 396.077L917.799 444.503" stroke="#67757C" stroke-opacity="0.3"/>
<path d="M326.346 286.522L398.401 287.892L408.214 306.976L518.416 309.072L544.061 342.908L595.771 343.892L629.635 302.295L708.472 303.795L737.339 346.585L769.552 347.197L793.921 314.313L826.982 314.942L854.238 353.255L1011.06 356.238" stroke="#67757C" stroke-opacity="0.3"/>
<path d="M860.555 377.83L897.854 378.54L934.159 431.475L985.87 432.459L992.419 444.811L1028.02 445.488" stroke="#67757C" stroke-opacity="0.3"/>
<path d="M871.807 365.817L915.888 366.655L945.624 408.35L988.009 409.156L996.254 421.541L1028.47 422.153" stroke="#67757C" stroke-opacity="0.3"/>
<path d="M951.302 377.333L1000.47 378.268L1021.96 407.579" stroke="#67757C" stroke-opacity="0.3"/>
<path d="M483.151 290.616L492.729 277.459L521.551 278.007L553.83 319.75" stroke="#67757C" stroke-opacity="0.3"/>
<path d="M412.091 281.483L468.888 282.563L484.548 261.741L533.715 262.676L567.583 310.008L598.101 310.588" stroke="#67757C" stroke-opacity="0.3"/>
<path d="M457.379 263.447L477.447 233.816L533.396 234.88L565.632 278.846L641.926 280.297L652.352 267.156L668.458 267.463L680.857 284.372L739.349 285.485L752.381 269.059L784.594 269.672L800.299 291.091L852.009 292.074L889.205 342.804L1006.19 345.029" stroke="#67757C" stroke-opacity="0.3"/>
<path d="M824.627 260.429L868.708 261.267L898.464 301.851L942.545 302.689L958.185 282.978L992.941 283.639L1007.82 303.931L1029.86 304.35" stroke="#67757C" stroke-opacity="0.3"/>
<path d="M883.903 264.891L898.781 285.183L936.081 285.892" stroke="#67757C" stroke-opacity="0.3"/>
<path d="M857.136 245.485L882.567 245.968L894.139 261.751L958.565 262.977L974.204 243.265L1008.11 243.91L1030.7 215.438" stroke="#67757C" stroke-opacity="0.3"/>
<path d="M835.117 243.954L853.362 220.958L895.748 221.764L915.585 248.82L942.712 249.336L963.564 223.054L997.473 223.699L1013.98 202.893" stroke="#67757C" stroke-opacity="0.3"/>
<path d="M1019.74 167.431L984.121 212.329L938.345 211.458" stroke="#67757C" stroke-opacity="0.3"/>
<path d="M809.643 245.693L847.872 197.51L953.836 199.525L987.721 156.817" stroke="#67757C" stroke-opacity="0.3"/>
<path d="M666.653 184.058L715.82 184.993L731.525 206.412L801.037 207.735L842.741 155.171L917.34 156.59" stroke="#67757C" stroke-opacity="0.3"/>
<path d="M652.728 158.226L717.154 159.452L737.818 187.635L791.224 188.651L830.322 139.373L930.351 141.275L967.712 94.1872L1002.47 94.8483" stroke="#67757C" stroke-opacity="0.3"/>
<path d="M1000.01 45.8911L980.023 71.0778L941.877 70.3522L914.942 104.299L810.674 102.316L775.052 147.214" stroke="#67757C" stroke-opacity="0.3"/>
<path d="M602.185 185.055L641.283 135.777L718.424 137.244L740.742 167.682L787.366 168.569L819.513 128.051L905.979 129.696" stroke="#67757C" stroke-opacity="0.3"/>
<path d="M584.467 180.272L628.778 124.423L769.498 127.1L808.596 77.8215L885.738 79.2888L921.36 34.3908L961.203 35.1487L974.235 18.7226" stroke="#67757C" stroke-opacity="0.3"/>
<path d="M634.182 107.852L761.338 110.27L809.993 48.9464L860.856 49.9139L886.921 17.0617" stroke="#67757C" stroke-opacity="0.3"/>
<path d="M862.38 14.3716L856.298 22.0371L812.217 21.1986L787.89 51.8606L776.869 51.651L742.116 95.4539L710.75 94.8573" stroke="#67757C" stroke-opacity="0.3"/>
<path d="M226.901 120.113L267.591 120.887L284.123 143.434L418.061 145.981L444.126 113.129L490.75 114.016L518.853 152.345L573.955 153.393L620.003 95.3544" stroke="#67757C" stroke-opacity="0.3"/>
<path d="M382.861 168.655L401.872 194.584L422.217 194.971L445.676 165.404L541.467 167.226L567.09 202.173L605.237 202.899L628.696 173.332L706.685 174.815" stroke="#67757C" stroke-opacity="0.3"/>
<path d="M134.766 327.341L247.511 329.486L298.773 264.877L489.507 268.505L563.359 175.424L838.017 180.648" stroke="#67757C" stroke-opacity="0.3"/>
<path d="M386.975 273.781L405.644 294.884L519.257 294.801L587.021 205.84L612.457 205.822M687.917 205.767L612.457 205.822M612.457 205.822L637.917 239.145L799.859 239.028L826.168 273.462" stroke="#5F6F77" stroke-opacity="0.3" stroke-width="2"/>
<path d="M663.303 170.22L679.397 149.092L788.771 149.013" stroke="#5F6F77" stroke-opacity="0.3" stroke-width="2"/>
<path d="M450.511 199.271L469.182 223.708L523.445 223.669" stroke="#5F6F77" stroke-opacity="0.3" stroke-width="2"/>
<path d="M495.407 143.668L445.383 143.705L430.984 163.72L408.94 163.736L445.398 163.71L506.444 163.666L518.327 181.439" stroke="#5F6F77" stroke-opacity="0.3" stroke-width="2"/>
</g>
</svg>
