<svg width="43" height="33" viewBox="0 0 43 33" fill="#E5E5E5" xmlns="http://www.w3.org/2000/svg">
<path d="M42.1854 11.0242C42.5129 10.7639 43 11.0074 43 11.4189V28.5938C43 30.8193 41.1943 32.625 38.9688 32.625H4.03125C1.80566 32.625 0 30.8193 0 28.5938V11.4273C0 11.0074 0.478711 10.7723 0.814648 11.0326C2.6959 12.4939 5.19023 14.35 13.7566 20.5732C15.5287 21.8666 18.5186 24.5877 21.5 24.5709C24.4982 24.5961 27.5469 21.8162 29.2518 20.5732C37.8182 14.35 40.3041 12.4855 42.1854 11.0242ZM21.5 21.875C23.4484 21.9086 26.2535 19.4227 27.6645 18.398C38.8092 10.3104 39.6574 9.60488 42.2273 7.58926C42.7145 7.21133 43 6.62344 43 6.00195V4.40625C43 2.18066 41.1943 0.375 38.9688 0.375H4.03125C1.80566 0.375 0 2.18066 0 4.40625V6.00195C0 6.62344 0.285547 7.20293 0.772656 7.58926C3.34258 9.59648 4.19082 10.3104 15.3355 18.398C16.7465 19.4227 19.5516 21.9086 21.5 21.875Z"/>
</svg>
