<svg width="31" height="31" viewBox="0 0 31 31" fill="#E5E5E5" xmlns="http://www.w3.org/2000/svg">
<path fill-rule="evenodd" clip-rule="evenodd" d="M15.5 31C24.0604 31 31 24.0604 31 15.5C31 6.93959 24.0604 0 15.5 0C6.93959 0 0 6.93959 0 15.5C0 24.0604 6.93959 31 15.5 31ZM20.9178 13.2489L20.3401 16.6875H17.3058V25H13.2364V16.6875H9.92997V13.2489H13.2364V10.6283C13.2364 7.64691 15.1808 6 18.1553 6C19.58 6 21.0702 6.2323 21.0702 6.2323V9.15986H19.4281C17.8104 9.15986 17.3058 10.0768 17.3058 11.0176V13.2489H20.9178Z"/>
</svg>
