<svg width="31" height="31" viewBox="0 0 31 31" fill="#E5E5E5" xmlns="http://www.w3.org/2000/svg">
<path fill-rule="evenodd" clip-rule="evenodd" d="M15.5 31C24.0604 31 31 24.0604 31 15.5C31 6.93959 24.0604 0 15.5 0C6.93959 0 0 6.93959 0 15.5C0 24.0604 6.93959 31 15.5 31ZM10.875 15.9956C10.875 13.2628 13.1652 11.0585 16.0045 11.0585C18.8437 11.0585 21.1339 13.2628 21.1339 15.9956C21.1339 18.7285 18.8437 20.9327 16.0045 20.9327C13.1652 20.9327 10.875 18.7285 10.875 15.9956ZM12.6696 15.9956C12.6696 17.766 14.1696 19.2054 16.0045 19.2054C17.8393 19.2054 19.3393 17.766 19.3393 15.9956C19.3393 14.2253 17.8437 12.7859 16.0045 12.7859C14.1652 12.7859 12.6696 14.2253 12.6696 15.9956ZM21.3437 12.0081C22.0045 12.0081 22.5402 11.4968 22.5402 10.8566C22.5402 10.2206 22.0045 9.70501 21.3437 9.70501C20.683 9.70501 20.1473 10.2206 20.1473 10.8566C20.1473 11.4925 20.6786 12.0081 21.3437 12.0081ZM24.3214 7.99056C25.4955 9.11634 25.8616 10.4827 25.9375 12.0253C26.0312 13.6152 26.0312 18.3761 25.9375 19.966C25.8571 21.5085 25.4911 22.8749 24.3214 24.0007C23.1518 25.1308 21.7321 25.4831 20.1295 25.5562C18.4777 25.6464 13.5268 25.6464 11.875 25.5562C10.2723 25.4788 8.85713 25.1265 7.68302 24.0007C6.50892 22.8749 6.14284 21.5085 6.06695 19.966C5.9732 18.3761 5.9732 13.6109 6.06695 12.021C6.14731 10.4785 6.50892 9.11205 7.68302 7.98626C8.85713 6.86048 10.2768 6.50814 11.875 6.43509C13.5268 6.34486 18.4777 6.34486 20.1295 6.43509C21.7321 6.51244 23.1518 6.86478 24.3214 7.99056ZM21.9018 23.5023C22.7812 23.1628 23.4553 22.514 23.8036 21.6718C24.2516 20.5883 24.2266 18.2181 24.2105 16.6817C24.2078 16.4269 24.2053 16.1949 24.2053 15.9956C24.2053 15.7963 24.2078 15.5644 24.2105 15.3097C24.2266 13.7741 24.2516 11.4067 23.8036 10.3195C23.4509 9.47298 22.7768 8.82415 21.9018 8.489C20.7725 8.06013 18.2981 8.08298 16.7022 8.09771C16.4434 8.1001 16.2076 8.10228 16.0045 8.10228C15.7974 8.10228 15.5564 8.09993 15.2917 8.09735C13.6963 8.08179 11.2367 8.05781 10.1071 8.489C9.22767 8.82845 8.55356 9.47728 8.20535 10.3195C7.75977 11.4064 7.78351 13.7881 7.79881 15.324C7.8013 15.5732 7.80356 15.8001 7.80356 15.9956C7.80356 16.195 7.80112 16.4269 7.79844 16.6816C7.78227 18.2172 7.75735 20.5846 8.20535 21.6718C8.55802 22.5183 9.23213 23.1671 10.1071 23.5023C11.2364 23.9311 13.7109 23.9083 15.3067 23.8936C15.5655 23.8912 15.8013 23.889 16.0045 23.889C16.2116 23.889 16.4525 23.8913 16.7172 23.8939C18.3126 23.9095 20.7722 23.9335 21.9018 23.5023Z" />
</svg>
