<svg width="26" height="26" viewBox="0 0 26 26" fill="#E5E5E5" xmlns="http://www.w3.org/2000/svg">
<path fill-rule="evenodd" clip-rule="evenodd" d="M13 26C20.1797 26 26 20.1797 26 13C26 5.8203 20.1797 0 13 0C5.8203 0 0 5.8203 0 13C0 20.1797 5.8203 26 13 26ZM16.4083 6.01789L19.4551 6.721C19.7744 6.79425 20 7.07842 20 7.40654C20 14.921 13.9093 21 6.40653 21C6.07548 21 5.79423 20.7715 5.72099 20.4551L5.01788 17.4083C4.94171 17.0772 5.11456 16.7374 5.42803 16.5997L8.70921 15.1935C8.99632 15.0704 9.3303 15.1525 9.52951 15.3956L10.9826 17.171C13.2765 16.0958 15.1192 14.2267 16.1739 11.9797L14.3986 10.5266C14.1554 10.3303 14.0734 9.9934 14.1964 9.70629L15.6026 6.42511C15.7374 6.11457 16.0772 5.94172 16.4083 6.01789Z" />
</svg>
