<svg width="163" height="153" viewBox="0 0 163 153" fill="none" xmlns="http://www.w3.org/2000/svg">
<rect x="23.6661" y="125.764" width="114.78" height="26.8973" rx="6" fill="#F50E0E"/>
<path fill-rule="evenodd" clip-rule="evenodd" d="M67.4224 49.7634C54.7753 49.7634 44.1202 59.2085 42.603 71.7643L40.0658 92.7607C38.8977 102.428 43.3881 111.346 50.7864 116.411L55.2587 83.7498C55.5582 81.5619 57.5707 80.0591 59.7535 80.3932C61.9364 80.7273 63.4631 82.7718 63.1636 84.9596L58.4419 119.443C58.4205 119.599 58.3904 119.752 58.3521 119.901C60.4296 120.46 62.6189 120.76 64.8853 120.76H98.1149C113.111 120.76 124.733 107.649 122.934 92.7607L120.397 71.7643C118.88 59.2085 108.225 49.7634 95.5778 49.7634H67.4224Z" fill="#EC9A9A"/>
<rect x="132.826" y="77.599" width="30.1742" height="15.3252" rx="7.6626" fill="#F50E0E"/>
<rect width="30.6276" height="15.1162" rx="7.55811" transform="matrix(0.849157 -0.528141 0.486229 0.873831 125.43 45.297)" fill="#F50E0E"/>
<rect width="30.6276" height="15.1162" rx="7.55811" transform="matrix(0.355505 -0.934675 0.916284 0.400529 70.943 28.6268)" fill="#F50E0E"/>
<rect width="30.6162" height="15.1216" rx="7.56078" transform="matrix(0.853195 0.521592 -0.479851 0.87735 11.3978 27.8704)" fill="#F50E0E"/>
<rect width="30.1742" height="15.3252" rx="7.6626" transform="matrix(0.999999 0.00107872 -0.00100549 1 0.0153809 77.2863)" fill="#F50E0E"/>
</svg>
