<svg width="176" height="176" viewBox="0 0 176 176" fill="none" xmlns="http://www.w3.org/2000/svg">
<circle cx="88" cy="88" r="88" fill="#E5E5E5"/>
<path d="M127.049 69.426C127.833 68.8044 129 69.3859 129 70.3685V111.375C129 116.689 124.675 121 119.344 121H35.6562C30.3252 121 26 116.689 26 111.375V70.3885C26 69.3859 27.1467 68.8245 27.9514 69.4461C32.4576 72.9352 38.4324 77.3667 58.952 92.2253C63.1967 95.3133 70.3584 101.81 77.5 101.77C84.6818 101.83 91.9844 95.193 96.0682 92.2253C116.588 77.3667 122.542 72.9151 127.049 69.426ZM77.5 95.3333C82.1672 95.4135 88.8863 89.4781 92.266 87.0318C118.962 67.7216 120.993 66.0372 127.149 61.2247C128.316 60.3224 129 58.9187 129 57.4349V53.625C129 48.3112 124.675 44 119.344 44H35.6562C30.3252 44 26 48.3112 26 53.625V57.4349C26 58.9187 26.684 60.3023 27.8508 61.2247C34.0066 66.0172 36.0385 67.7216 62.734 87.0318C66.1137 89.4781 72.8328 95.4135 77.5 95.3333Z" fill="#C4C4C4"/>
<path d="M157.311 87.25L126.25 118.192L112.689 104.683C112.689 104.683 112.689 104.683 112.689 104.683C110.347 102.35 106.553 102.35 104.21 104.683C104.21 104.683 104.21 104.683 104.21 104.683L99.2607 109.614L99.2606 109.614C96.9132 111.953 96.913 115.748 99.2607 118.087L122.011 140.75C122.011 140.75 122.011 140.75 122.011 140.75C124.353 143.083 128.147 143.083 130.489 140.75L130.489 140.75L170.739 100.654L170.739 100.654C173.087 98.3152 173.087 94.5195 170.739 92.1808L165.79 87.25L165.79 87.25C163.447 84.9167 159.653 84.9167 157.311 87.25Z" fill="#87B800" stroke="#E5E5E5" stroke-width="5"/>
</svg>
