<svg width="666" height="325" viewBox="0 0 666 325" fill="none" xmlns="http://www.w3.org/2000/svg">
<rect y="62" width="667" height="191" fill="#87B800"/>
<path d="M142.075 118.465C131.507 107.883 117.432 102.062 102.475 102.062C71.6016 102.062 46.4792 127.157 46.4792 157.996C46.4792 167.847 49.052 177.472 53.9453 185.963L46 214.938L75.6877 207.152C83.86 211.612 93.0665 213.955 102.45 213.955H102.475C133.323 213.955 159 188.86 159 158.021C159 143.08 152.644 129.047 142.075 118.465ZM102.475 204.532C94.1007 204.532 85.9031 202.289 78.765 198.057L77.075 197.049L59.4692 201.66L64.1607 184.502L63.0509 182.738C58.3846 175.33 55.9379 166.789 55.9379 157.996C55.9379 132.372 76.8228 111.511 102.5 111.511C114.935 111.511 126.613 116.348 135.391 125.141C144.169 133.935 149.567 145.6 149.541 158.021C149.541 183.67 128.127 204.532 102.475 204.532ZM128.001 169.712C126.613 169.006 119.727 165.63 118.441 165.177C117.155 164.698 116.221 164.471 115.288 165.882C114.355 167.293 111.681 170.417 110.849 171.375C110.042 172.307 109.209 172.433 107.822 171.728C99.5993 167.621 94.2016 164.396 88.7786 155.099C87.3408 152.629 90.2163 152.806 92.89 147.464C93.344 146.532 93.117 145.726 92.7638 145.021C92.4107 144.315 89.6109 137.437 88.4507 134.64C87.3156 131.919 86.1554 132.297 85.2978 132.246C84.4906 132.196 83.5574 132.196 82.6241 132.196C81.6908 132.196 80.1775 132.549 78.8911 133.935C77.6047 135.346 73.9978 138.722 73.9978 145.6C73.9978 152.478 79.0172 159.13 79.6982 160.062C80.4045 160.994 89.5605 175.104 103.61 181.176C112.488 185.005 115.969 185.333 120.408 184.678C123.107 184.275 128.682 181.302 129.842 178.026C131.002 174.751 131.002 171.954 130.649 171.375C130.321 170.745 129.388 170.392 128.001 169.712Z" fill="#156408"/>
<g clip-path="url(#clip0_37:605)">
<path d="M265.966 219.332L243.42 214.129C240.97 213.565 238.455 214.844 237.458 217.142L227.051 241.424C226.141 243.548 226.748 246.041 228.547 247.494L241.685 258.247C233.88 274.875 220.244 288.707 203.269 296.663L192.516 283.526C191.041 281.726 188.57 281.119 186.445 282.03L162.164 292.436C159.844 293.455 158.565 295.97 159.129 298.419L164.332 320.966C164.874 323.308 166.955 324.999 169.405 324.999C224.927 324.999 269.999 280.013 269.999 224.405C269.999 221.977 268.329 219.874 265.966 219.332Z" fill="#156408"/>
</g>
<path d="M344.082 37.4321C345.255 36.5169 347 37.373 347 38.8195V99.189C347 107.012 340.533 113.359 332.562 113.359H207.438C199.467 113.359 193 107.012 193 99.189V38.849C193 37.373 194.714 36.5464 195.918 37.4616C202.655 42.5981 211.588 49.1222 242.268 70.9969C248.614 75.5431 259.322 85.1077 270 85.0487C280.738 85.1373 291.656 75.366 297.762 70.9969C328.442 49.1222 337.345 42.5686 344.082 37.4321ZM270 75.5726C276.978 75.6907 287.024 66.9526 292.077 63.3511C331.991 34.9228 335.029 32.4431 344.233 25.3581C345.977 24.0297 347 21.9633 347 19.7788V14.1699C347 6.34692 340.533 0 332.562 0H207.438C199.467 0 193 6.34692 193 14.1699V19.7788C193 21.9633 194.023 24.0002 195.767 25.3581C204.971 32.4136 208.009 34.9228 247.923 63.3511C252.976 66.9526 263.022 75.6907 270 75.5726Z" fill="#156408"/>
<path d="M546.917 135.391C534.461 89.8934 490.573 68.2711 451.156 78.6074C412.156 88.8347 384.597 128.482 397.372 175.14C393.154 179.266 391.28 185.443 392.959 191.575L397.497 208.15C399.993 217.266 409.519 222.762 418.666 220.363L426.982 218.183L413.141 167.63C404.36 135.558 423.286 102.793 455.467 94.3534C487.649 85.9143 520.779 105.028 529.56 137.1L545.67 195.941L479.144 213.386L483.682 229.961L550.207 212.516C559.355 210.117 564.797 200.696 562.301 191.58L559.533 181.469C563.736 177.613 565.761 171.664 564.127 165.697L558.909 146.636C557.32 140.835 552.527 136.674 546.917 135.391Z" fill="#156408"/>
<path d="M451.084 176.348C455.676 175.144 458.382 170.459 457.129 165.883C455.876 161.307 451.139 158.573 446.547 159.778C441.955 160.982 439.249 165.667 440.502 170.243C441.754 174.819 446.492 177.552 451.084 176.348Z" fill="#156408"/>
<path d="M501.1 163.138C505.691 161.934 508.398 157.248 507.145 152.672C505.892 148.096 501.154 145.363 496.563 146.567C491.971 147.771 489.265 152.457 490.518 157.033C491.77 161.609 496.508 164.342 501.1 163.138Z" fill="#156408"/>
<path d="M519.379 132.138C508.912 109.537 483.321 96.8624 458.436 103.391C433.218 110.007 411.786 137.953 422.897 170.079C441.16 156.305 451.645 133.988 449.97 110.592C466.845 129.556 493.344 138.702 519.379 132.138Z" fill="#156408"/>
<defs>
<clipPath id="clip0_37:605">
<rect width="111" height="111" fill="white" transform="translate(159 214)"/>
</clipPath>
</defs>
</svg>
