<svg width="26" height="26" viewBox="0 0 26 26" fill="#E5E5E5" xmlns="http://www.w3.org/2000/svg">
<path fill-rule="evenodd" clip-rule="evenodd" d="M13 26C20.1797 26 26 20.1797 26 13C26 5.8203 20.1797 0 13 0C5.8203 0 0 5.8203 0 13C0 20.1797 5.8203 26 13 26ZM12.996 4C15.3786 4 17.6205 4.87656 19.304 6.47031C20.9875 8.06406 22 10.1777 22 12.4279C22 17.0725 17.9098 20.852 12.996 20.852H12.992C11.4973 20.852 10.0308 20.4991 8.72902 19.8275L4 21L5.26562 16.6362C4.48616 15.3574 4.07634 13.9078 4.07634 12.4241C4.07634 7.77946 8.07812 4 12.996 4ZM9.2192 18.4576C10.3562 19.0951 11.6621 19.4328 12.996 19.4328C17.0821 19.4328 20.4933 16.2908 20.4933 12.4279C20.4973 10.5571 19.6375 8.80022 18.2393 7.47589C16.8411 6.15156 14.9808 5.42299 13 5.42299C8.90982 5.42299 5.58304 8.56496 5.58304 12.4241C5.58304 13.7484 5.97277 15.0348 6.71607 16.1504L6.89286 16.4161L6.14554 19.0002L8.95 18.3058L9.2192 18.4576ZM15.5393 13.5056C15.7442 13.5739 16.8411 14.0824 17.0621 14.1886C17.0982 14.2054 17.1325 14.2208 17.1647 14.2354C17.3291 14.3096 17.4402 14.3597 17.4839 14.4391C17.5402 14.5263 17.5402 14.9475 17.3554 15.4408C17.1705 15.9342 16.2826 16.3819 15.8527 16.4426C15.1455 16.5413 14.5911 16.492 13.1768 15.9152C11.0928 15.0636 9.68472 13.1623 9.41 12.7914C9.38971 12.764 9.3756 12.7449 9.36786 12.7353C9.36504 12.7316 9.36176 12.7274 9.35804 12.7226C9.2184 12.5428 8.45982 11.5662 8.45982 10.5571C8.45982 9.58935 8.96127 9.0819 9.19432 8.84607C9.21073 8.82946 9.22581 8.8142 9.23929 8.80022C9.4442 8.59152 9.68527 8.53839 9.83393 8.53839C9.98259 8.53839 10.1313 8.53839 10.2598 8.54598C10.2764 8.5469 10.2937 8.54687 10.3116 8.54684C10.4412 8.54663 10.6032 8.54636 10.7621 8.90647C10.8166 9.03088 10.894 9.20893 10.9774 9.4008C11.1763 9.85854 11.4095 10.395 11.4491 10.4699C11.5054 10.5761 11.5415 10.6975 11.4692 10.8379C11.2798 11.1957 11.084 11.3891 10.9452 11.5263C10.7718 11.6976 10.6871 11.7812 10.8143 11.9877C11.6781 13.3879 12.5379 13.8737 13.8478 14.4922C14.0688 14.5984 14.2013 14.5795 14.3299 14.4391C14.4625 14.2949 14.8884 13.8243 15.0371 13.6118C15.1857 13.3993 15.3344 13.4335 15.5393 13.5056Z"/>
</svg>
