<svg width="145" height="56" viewBox="0 0 145 56" fill="none" xmlns="http://www.w3.org/2000/svg">
<path d="M16.4987 43.9967V14.8489H21.9983C23.9232 14.8489 24.7481 16.7737 25.0231 17.8737C27.0029 15.2339 30.6143 14.3906 32.1725 14.2989C36.1322 13.859 38.5887 17.0487 39.322 18.6986C39.542 19.5785 39.9636 19.4319 40.1469 19.2486C42.7867 14.8489 47.4797 14.1156 49.4962 14.2989C57.8556 14.2989 60.1288 20.3485 60.2204 23.3732V43.4467C60.2204 44.5466 59.6705 45.0049 59.3955 45.0966H52.246C51.3661 45.0966 51.1461 44.3633 51.1461 43.9967V26.673C50.9261 23.5932 48.488 22.8233 47.2964 22.8233C44.2166 22.6033 43.0801 25.1148 42.8967 26.398V43.9967C42.6768 44.8766 42.2551 45.0966 42.0718 45.0966H34.6474C33.9874 44.8766 33.8224 44.2717 33.8224 43.9967V25.5731C30.9626 20.9534 26.9479 23.4649 25.2981 25.2981V43.9967C25.2981 44.8766 24.7481 45.0966 24.4731 45.0966H17.5986C16.7187 45.0966 16.4987 44.3633 16.4987 43.9967Z" fill="#00BAD6"/>
<path d="M13.749 14.5739H6.32453C5.66457 14.5739 5.49959 15.3072 5.49959 15.6738V44.8216C5.49959 46.5815 4.39967 47.0215 3.84971 47.0215H1.64988C0.549959 46.8015 0.0916598 47.6631 0 48.1214V54.9959C11.4391 57.4157 14.4822 50.5045 14.5739 46.7465V15.6738C14.5739 14.7939 14.0239 14.5739 13.749 14.5739Z" fill="#00BAD6"/>
<path d="M15.9488 5.77457C15.9488 8.8119 13.3634 11.2742 10.1742 11.2742C6.98503 11.2742 4.39967 8.8119 4.39967 5.77457C4.39967 2.73723 6.98503 0.274979 10.1742 0.274979C13.3634 0.274979 15.9488 2.73723 15.9488 5.77457Z" fill="#00BAD6"/>
<path d="M65.1701 11.3807V14.5739H61.7704C61.2182 14.5739 60.7704 15.0216 60.7704 15.5739V21.8233C60.7704 22.3756 61.2182 22.8233 61.7704 22.8233H64.8951V37.6722C64.8951 42.9518 70.3031 44.8216 72.8695 45.0966C76.1693 45.5366 80.294 43.7217 81.9439 42.6218L79.1941 36.8472C78.9191 36.0223 77.8192 35.9306 77.5442 36.0223C75.5643 37.5622 73.9695 36.0223 73.9695 35.1974V22.8233H77.9671C78.376 22.8233 78.7437 22.5743 78.8955 22.1947L81.3953 15.9453C81.658 15.2884 81.1743 14.5739 80.4668 14.5739H73.4195V8.67265C73.4195 7.953 72.6822 7.46895 72.0219 7.75509L65.7725 10.4632C65.4068 10.6216 65.1701 10.9821 65.1701 11.3807Z" fill="#003D5C"/>
<path fill-rule="evenodd" clip-rule="evenodd" d="M89.0933 32.7225L103.667 28.0479C105.317 27.3146 108.012 24.9681 105.592 21.4484C104.584 19.7068 101.522 15.9488 97.3427 14.8489C94.8679 14.2989 88.7633 14.3539 84.1437 18.9736C82.9521 20.1651 80.459 23.5932 80.019 27.7729C79.469 30.3394 79.964 36.8472 86.3435 42.3468C88.635 43.905 95.1978 46.4715 103.117 44.2717C109.533 42.1635 124.291 35.6923 131.99 26.673C135.107 22.64 140.954 13.034 139.415 6.87447C138.681 4.58298 135.84 0.109983 130.34 0.54995C128.14 0.641612 123.191 2.80479 120.991 10.7242C120.533 13.1073 119.891 19.2486 120.991 24.7481C122.457 23.7399 125.886 20.7884 127.865 17.0487C127.865 14.2073 128.525 8.52436 131.165 8.52436C132.173 8.891 133.09 11.2742 128.69 17.8737C125.757 22.4566 117.141 31.8976 104.492 35.4723C100.276 37.0305 91.2931 38.6621 89.0933 32.7225ZM89.3781 25.3925L96.7942 23.0002C97.0929 22.9039 97.2443 22.5729 97.0273 22.3461C96.3887 21.6786 94.8398 21.0182 91.8431 21.7234C90.7854 22.2115 88.8755 23.4797 88.7674 24.9893C88.7447 25.3068 89.0752 25.4902 89.3781 25.3925Z" fill="#003D5C"/>
<path d="M143.862 40.1649C138.126 40.1508 133.036 32.7029 131.165 28.8728C130.505 29.7528 127.224 32.9059 125.666 34.3724C130.505 42.7318 136.298 45.0049 138.59 45.0966C143.378 45.0966 144.457 42.3823 144.411 40.6463C144.403 40.3621 144.147 40.1656 143.862 40.1649Z" fill="#003D5C"/>
<path d="M116.315 0.559153L109.515 3.32138C109.138 3.47455 108.892 3.84091 108.892 4.24785V32.1726C111.532 31.7326 115.858 28.5062 117.691 26.948V1.48562C117.691 0.775857 116.972 0.292015 116.315 0.559153Z" fill="#003D5C"/>
<path d="M121.559 37.0792C119.627 38.3258 115.708 40.5238 112.869 42.079C112.198 42.4467 112.176 43.3937 112.872 43.7123C117.798 45.9684 122.697 44.3401 125.21 42.8289C125.64 42.5705 125.761 42.0178 125.521 41.5776L123.281 37.4706C122.961 36.8845 122.12 36.7172 121.559 37.0792Z" fill="#003D5C"/>
</svg>
